<svg xmlns="http://www.w3.org/2000/svg" viewBox="0 0 512.001 512.001"><g fill="#dd9f3a"><path d="M369.384 138.014v47.429c0 12.935-10.485 23.42-23.42 23.42H65.489c-12.935 0-23.42-10.485-23.42-23.42v-47.429c0-12.925 10.485-23.41 23.42-23.41h280.474c12.936 0 23.421 10.485 23.421 23.41zM327.315 232.281v47.429c0 12.935-10.485 23.42-23.42 23.42H23.42C10.485 303.13 0 292.645 0 279.71v-47.429c0-12.925 10.485-23.41 23.42-23.41h280.474c12.936 0 23.421 10.485 23.421 23.41zM343.091 326.546v47.429c0 12.935-10.485 23.42-23.42 23.42H39.196c-12.935 0-23.42-10.485-23.42-23.42v-47.429c0-12.925 10.485-23.41 23.42-23.41H319.67c12.936 0 23.421 10.485 23.421 23.41zM327.315 420.813v47.429c0 12.935-10.485 23.42-23.42 23.42H23.42c-12.935 0-23.42-10.485-23.42-23.42v-47.429c0-12.925 10.485-23.41 23.42-23.41h280.474c12.936 0 23.421 10.485 23.421 23.41z"/></g><path d="M327.317 420.814v32.706c0 12.094-9.17 22.053-20.938 23.294-.82.084-1.641.126-2.482.126H81.063c-12.925 0-23.41-10.485-23.41-23.42v-32.706c0-12.925 10.485-23.41 23.41-23.41h222.834c12.935 0 23.42 10.485 23.42 23.41z" fill="#f4b74a"/><path d="M327.317 420.814v32.706c0 12.094-9.17 22.053-20.938 23.294-.82.084-1.641.126-2.482.126H81.063c-12.925 0-23.41-10.485-23.41-23.42v-32.706c0-12.925 10.485-23.41 23.41-23.41h222.834c12.935 0 23.42 10.485 23.42 23.41z" fill="#f4b74a"/><g fill="#f4b74a"><path d="M327.316 326.545v32.706c0 12.094-9.17 22.053-20.938 23.294-.82.084-1.641.126-2.482.126H81.062c-12.925 0-23.41-10.485-23.41-23.42v-32.706c0-12.925 10.485-23.41 23.41-23.41h222.834c12.936-.001 23.42 10.484 23.42 23.41zM327.316 232.286v32.706c0 12.094-9.17 22.053-20.938 23.294-.82.084-1.641.126-2.482.126H81.062c-12.925 0-23.41-10.485-23.41-23.42v-32.706c0-12.925 10.485-23.41 23.41-23.41h222.834c12.936 0 23.42 10.485 23.42 23.41zM369.382 138.016v32.706c0 12.094-9.17 22.053-20.938 23.294-.82.084-1.641.126-2.482.126H123.128c-12.925 0-23.41-10.485-23.41-23.42v-32.706c0-12.925 10.485-23.41 23.41-23.41h222.834c12.936 0 23.42 10.485 23.42 23.41z"/></g><g fill="#dd9f3a"><path d="M327.316 420.815v47.429c0 12.094-9.17 22.053-20.938 23.294-2.135.084-4.27.126-6.405.126-22.631 0-45.263-4.659-66.338-13.997-14.145-6.257-27.564-14.628-39.826-25.092a167.067 167.067 0 01-9.559-8.834c-13.85-13.85-24.693-29.562-32.538-46.336h152.184c12.935 0 23.42 10.485 23.42 23.41zM327.316 326.545v47.429c0 12.935-10.485 23.42-23.42 23.42h-136.43c-13.85-29.604-18.351-62.51-13.493-94.259h149.923c12.935-.001 23.42 10.485 23.42 23.41zM327.315 43.747v47.429c0 12.935-10.485 23.42-23.42 23.42H23.42C10.485 114.597 0 104.112 0 91.177v-47.43c0-12.925 10.485-23.41 23.42-23.41h280.474c12.936.001 23.421 10.486 23.421 23.41z"/></g><path d="M327.317 43.745v32.706c0 12.094-9.17 22.053-20.938 23.294-.82.084-1.641.126-2.482.126H81.063c-12.925 0-23.41-10.485-23.41-23.42V43.745c0-12.925 10.485-23.41 23.41-23.41h222.834c12.935.001 23.42 10.486 23.42 23.41z" fill="#f4b74a"/><g fill="#f9c662"><path d="M254.467 20.336h34.347v79.536h-34.347zM212.054 20.336h17.173v79.536h-17.173zM295.839 114.609h34.351v94.27h-34.351zM253.416 114.609h17.176v94.27h-17.176z"/></g><g fill="#dd9f3a"><path d="M369.382 170.123v15.323c0 12.935-10.485 23.42-23.42 23.42H214.074c42.792-40.343 102-53.256 155.308-38.743zM327.316 232.286v47.429c0 12.935-10.485 23.42-23.42 23.42H138.198c5.079-33.253 20.434-65.234 46.041-90.841a152.978 152.978 0 013.534-3.418h116.123c12.935 0 23.42 10.485 23.42 23.41z"/></g><path d="M464.071 443.735c-49.228 49.219-122.001 60.534-182.056 33.929a162.583 162.583 0 01-39.826-25.088 165.597 165.597 0 01-9.567-8.841c-63.908-63.916-63.908-167.533 0-231.449 63.916-63.908 167.533-63.908 231.449 0a163.144 163.144 0 018.841 9.567A162.396 162.396 0 01498 261.679c26.605 60.047 15.29 132.829-33.929 182.056z" fill="#f4b74a"/><path d="M497.999 261.679L282.015 477.664a162.583 162.583 0 01-39.826-25.088l230.723-230.723a162.44 162.44 0 0125.087 39.826z" fill="#f9c662"/><path d="M464.07 328.011c0 63.912-51.812 115.723-115.723 115.723-36.077 0-68.293-16.503-89.52-42.38-16.38-19.964-26.203-45.507-26.203-73.343 0-63.912 51.812-115.723 115.723-115.723 27.842 0 53.386 9.837 73.349 26.218 25.87 21.218 42.374 53.436 42.374 89.505z" fill="#ffd488"/><path d="M421.696 238.505L258.841 401.36l-.015-.007a115.287 115.287 0 01-12.579-18.826 114.57 114.57 0 01-9.619-24.23 115.89 115.89 0 01-4.005-30.287c0-63.912 51.812-115.723 115.723-115.723 10.483 0 20.639 1.392 30.287 4.005 8.51 2.3 16.62 5.55 24.23 9.627a115.773 115.773 0 0118.833 12.586z" fill="#f9c662"/><path d="M402.864 225.919L246.248 382.528a114.57 114.57 0 01-9.619-24.23l142.006-142.006c8.508 2.3 16.619 5.55 24.229 9.627z" fill="#ffd488"/><g fill="#e0a33f"><path d="M356.234 320.753v-43.436c11.5 2.68 19.915 11.056 19.915 20.953 0 4.356 3.53 7.887 7.887 7.887s7.887-3.531 7.887-7.887c0-18.423-15.415-33.784-35.69-36.999v-4.639c0-4.356-3.53-7.887-7.887-7.887s-7.887 3.531-7.887 7.887v4.639c-20.275 3.216-35.691 18.577-35.691 36.999s15.416 33.784 35.691 36.999v43.436c-11.5-2.68-19.916-11.056-19.916-20.953a7.886 7.886 0 00-7.887-7.887 7.886 7.886 0 00-7.887 7.887c0 18.423 15.416 33.784 35.691 36.999v4.639c0 4.356 3.53 7.887 7.887 7.887s7.887-3.531 7.887-7.887v-4.639c20.275-3.215 35.69-18.577 35.69-36.999s-15.415-33.783-35.69-36.999zm-35.69-22.484c0-9.897 8.415-18.273 19.916-20.953v41.906c-11.5-2.679-19.916-11.056-19.916-20.953zm35.69 80.436v-41.906c11.5 2.68 19.915 11.056 19.915 20.953s-8.415 18.273-19.915 20.953z"/><path d="M348.347 451.622c-37.169 0-72.02-16.498-95.619-45.266-18.05-21.999-27.992-49.823-27.992-78.345 0-68.159 55.452-123.611 123.611-123.611 28.514 0 56.34 9.947 78.353 28.007 28.762 23.592 45.257 58.438 45.257 95.603-.001 68.16-55.451 123.612-123.61 123.612zm0-231.447c-59.461 0-107.836 48.375-107.836 107.836 0 24.882 8.67 49.153 24.413 68.339 20.59 25.101 50.996 39.497 83.423 39.497 59.46 0 107.835-48.375 107.835-107.836 0-32.422-14.393-62.823-39.488-83.407-19.198-15.754-43.472-24.429-68.347-24.429z"/></g></svg>