<svg xmlns="http://www.w3.org/2000/svg" height="512pt" viewBox="-22 0 512 512" width="512pt"><path d="M449.46 65.621H291.204v31.68H432.93l-10.098 39.84c-12.617 49.785-51.695 87.172-99.945 98.71l-31.684 3.516v31.887c76.649 0 143.512-52.031 162.336-126.328l14.16-55.867c3.012-11.887-5.972-23.438-18.238-23.438zm0 0M18.824 65.621h158.254v31.68H35.355l10.094 39.84c12.617 49.785 51.7 87.172 99.95 98.71l31.68 3.516v31.887c-76.645 0-143.509-52.031-162.337-126.328L.586 89.059C-2.426 77.172 6.559 65.62 18.824 65.62zm0 0" fill="#f5b556"/><path d="M257.96 283.688h-47.64s7.414 76.562-53.617 140.753h154.875c-61.031-64.191-53.617-140.753-53.617-140.753zm0 0" fill="#fed066"/><path d="M257.96 283.688h-23.82s-26.777 93.265 24.364 140.753h53.074c-61.031-64.191-53.617-140.753-53.617-140.753zm0 0" fill="#f5b556"/><path d="M103.164 0c-.004 54.441-.012 108.969-.012 109.691 0 110.274 74.012 172.965 110.77 197.297 12.25 8.11 28.191 8.11 40.437 0 36.758-24.332 110.774-87.023 110.774-197.297 0-.722-.012-55.25-.016-109.691zm0 0" fill="#fed066"/><path d="M365.117 0h-53.55c.003 54.441.011 108.969.011 109.691 0 104.055-65.898 165.735-104.21 192.805a257.841 257.841 0 006.558 4.492c12.246 8.11 28.187 8.11 40.437 0 36.754-24.336 110.77-87.023 110.77-197.297 0-.722-.012-55.25-.016-109.691zm0 0" fill="#f5b556"/><path d="M376.215 37.578H92.07a9.057 9.057 0 01-9.058-9.058V9.063C83.012 4.059 87.066 0 92.07 0h284.145c5.004 0 9.058 4.059 9.058 9.063v19.453a9.058 9.058 0 01-9.058 9.062zm0 0" fill="#f5b556"/><path d="M376.215 0H331.84v37.578h44.375a9.057 9.057 0 009.058-9.058V9.063c0-5.004-4.054-9.063-9.058-9.063zm0 0" fill="#e8a246"/><path d="M339.945 512H128.34a7.948 7.948 0 01-7.95-7.945v-83.918a7.948 7.948 0 017.95-7.946h211.605a7.945 7.945 0 017.946 7.946v83.918a7.945 7.945 0 01-7.946 7.945zm0 0" fill="#3c5666"/><path d="M339.945 412.191h-45.488V512h45.488a7.945 7.945 0 007.946-7.945v-83.918a7.945 7.945 0 00-7.946-7.946zm0 0" fill="#194451"/><path d="M155.828 474.598v-25.004c0-1.086.879-1.965 1.965-1.965h152.695c1.086 0 1.965.879 1.965 1.965v25.004a1.964 1.964 0 01-1.965 1.964H157.793a1.966 1.966 0 01-1.965-1.964zm0 0M236.738 75.121l16.41 50.504a2.724 2.724 0 002.594 1.887h53.102c2.644 0 3.746 3.383 1.605 4.937l-42.96 31.211a2.733 2.733 0 00-.993 3.05l16.41 50.505c.817 2.515-2.058 4.605-4.199 3.05l-42.96-31.21a2.726 2.726 0 00-3.208 0l-42.96 31.21c-2.138 1.555-5.017-.535-4.2-3.05l16.41-50.504a2.733 2.733 0 00-.992-3.05l-42.961-31.212c-2.137-1.554-1.04-4.937 1.605-4.937h53.102c1.184 0 2.23-.762 2.598-1.887l16.406-50.504c.816-2.516 4.375-2.516 5.191 0zm0 0" fill="#f2f2f2"/></svg>