<?xml version="1.0" encoding="UTF-8" standalone="no"?>
<!DOCTYPE svg PUBLIC "-//W3C//DTD SVG 1.1//EN" "http://www.w3.org/Graphics/SVG/1.1/DTD/svg11.dtd">
<svg width="100%" height="100%" viewBox="0 0 512 512" version="1.1" xmlns="http://www.w3.org/2000/svg" xmlns:xlink="http://www.w3.org/1999/xlink" xml:space="preserve" xmlns:serif="http://www.serif.com/" style="fill-rule:evenodd;clip-rule:evenodd;stroke-linejoin:round;stroke-miterlimit:2;">
    <g id="path1573" transform="matrix(4.12545,0,0,4.12545,23.7196,102.08)">
        <path d="M64.401,19.2L57.951,2L53.551,2L47.101,19.2L45.501,17.8L51.701,1.3C51.834,0.9 52.067,0.583 52.401,0.35C52.734,0.117 53.117,0 53.551,0L57.951,0C58.384,0 58.767,0.117 59.101,0.35L59.851,1.3L66.051,17.85L64.401,19.2M63.501,72.95L66.401,72.95L71.351,64.6L72.351,66.9L68.151,74L67.401,74.7L66.401,74.95L45.101,74.95L44.101,74.7L43.401,74L39.201,66.9L40.151,64.6L45.101,72.95L63.501,72.95M102.451,41.5L101.451,38.75L101.851,38.3C102.151,38.067 102.501,37.933 102.901,37.9L104.001,38.15L110.451,41.6C110.784,41.767 111.051,42.017 111.251,42.35L111.5,43.4L111.2,44.45L94.4,70.85L93.45,71.6L92.25,71.7L90.75,71.35L91.5,69.45L91.65,69.5L92.7,69.75L109.5,43.35L103.05,39.9L102.75,40.7L102.45,41.5M9.15,41.75L8.45,39.9L2,43.35L18.8,69.75L19.85,69.5L19.9,69.5L20.6,71.4L19.3,71.7L18.05,71.6L17.15,70.85L0.35,44.45C0.117,44.117 0,43.767 0,43.4C0,43.033 0.1,42.683 0.3,42.35C0.467,42.017 0.717,41.767 1.05,41.6L7.5,38.15C7.833,37.95 8.2,37.867 8.6,37.9C9,37.933 9.35,38.067 9.65,38.3L10.2,38.95L9.15,41.75" style="fill:rgb(203,203,203);fill-rule:nonzero;"/>
    </g>
    <g id="path1575" transform="matrix(4.12545,0,0,4.12545,23.7196,102.08)">
        <path d="M9.151,41.75L19.201,67.75L19.4,68.2L19.501,68.5L19.851,69.5L18.801,69.75L2.001,43.35L8.451,39.9L9.151,41.75M56.451,2L57.951,2L64.401,19.2L77.551,53.9L71.351,64.6L66.401,72.95L63.501,72.95L70.001,52.5L56.451,2M47.101,19.2L53.551,2L55.051,2L41.501,52.5L48.001,72.95L45.101,72.95L40.151,64.6L33.951,53.9L47.101,19.2M63.451,42.25L57.101,18.75L54.401,18.75L48.151,42.25L48.101,42.25L54.401,16.75L57.101,16.75L63.451,42.25M91.651,69.5L102.451,41.55L102.751,40.7L103.051,39.9L109.501,43.35L92.701,69.75L91.651,69.5" style="fill:rgb(242,242,242);fill-rule:nonzero;"/>
    </g>
    <g id="path1577" transform="matrix(4.12545,0,0,4.12545,23.7196,102.08)">
        <path d="M91.651,69.5L91.5,69.45L89.8,69.05L90.85,65.7L93.75,56.3L98.9,39.7L98.651,39.55L102.451,41.55L91.651,69.5M71.351,64.6L77.551,53.9L64.401,19.2L67.801,21.05L69.301,23.85L69.251,23.85L69.751,24.8L82.251,56.75L77.251,66.05L71.351,64.6M42.101,23.9L43.601,21.1L47.101,19.2L33.951,53.9L40.151,64.6L34.251,66.05L29.251,56.75L42.101,23.95L42.101,23.9M17.751,56.3L19.901,63.35L20.301,64.55L20.651,65.7L21.701,69.05L21.651,69.1L19.901,69.5L19.851,69.5L19.501,68.5L19.401,68.2L19.201,67.75L9.151,41.75L12.701,39.85L17.751,56.3" style="fill:rgb(201,77,42);fill-rule:nonzero;"/>
    </g>
    <g id="path1579" transform="matrix(4.12545,0,0,4.12545,23.7196,102.08)">
        <path d="M17.751,56.3L12.701,39.85L42.101,23.9L42.101,23.95L29.251,56.75L34.251,66.05L28.701,67.35L27.801,63.95L25.251,54.5L17.751,56.3M69.301,23.85L84.151,31.85L91.501,35.8L98.001,39.2L98.651,39.55L98.9,39.7L93.75,56.3L86.25,54.5L83.7,63.95L82.8,67.35L77.25,66.05L82.25,56.75L69.75,24.8L69.25,23.85L69.3,23.85" style="fill:rgb(222,83,44);fill-rule:nonzero;"/>
    </g>
    <g id="path1581" transform="matrix(4.12545,0,0,4.12545,23.7196,102.08)">
        <path d="M69.301,23.85L67.801,21.05L64.401,19.2L66.051,17.85L68.751,19.3L69.601,20.1L70.801,22.4L85.101,30.1L92.451,34.05L98.951,37.45L101.451,38.75L102.451,41.5L102.451,41.55L98.651,39.55L98.001,39.2L91.501,35.8L84.151,31.85L69.301,23.85M45.501,17.8L47.101,19.2L43.601,21.1L42.101,23.9L12.701,39.85L9.151,41.75L10.201,38.95L40.601,22.45L41.851,20.15C42.017,19.817 42.284,19.55 42.651,19.35L45.501,17.8M34.251,66.05L40.151,64.6L39.201,66.9L29.201,69.3L28.701,67.35L34.251,66.05M72.351,66.9L71.351,64.6L77.251,66.05L82.801,67.35L82.251,69.3L72.351,66.9M20.601,71.4L19.901,69.5L21.651,69.1L22.201,71L20.601,71.4M90.751,71.35L89.201,71L89.801,69.05L91.501,69.45L90.751,71.35" style="fill:rgb(161,62,34);fill-rule:nonzero;"/>
    </g>
    <g id="path1583" transform="matrix(4.12545,0,0,4.12545,23.7196,102.08)">
        <path d="M55.051,2L56.451,2L70.001,52.5L63.501,72.95L48.001,72.95L41.501,52.5L55.051,2M48.151,42.25L47.85,43.25L63.7,43.25L63.451,42.25L57.101,16.75L54.401,16.75L48.101,42.25L48.151,42.25" style="fill:rgb(215,215,215);fill-rule:nonzero;"/>
    </g>
    <g id="path1585" transform="matrix(4.12545,0,0,4.12545,23.7196,102.08)">
        <path d="M48.151,42.25L54.401,18.75L57.101,18.75L63.451,42.25L63.7,43.25L47.85,43.25L48.15,42.25" style="fill:rgb(74,60,85);fill-rule:nonzero;"/>
    </g>
    <g id="path1587" transform="matrix(4.12545,0,0,4.12545,23.7196,102.08)">
        <path d="M17.751,56.3L25.251,54.5L27.801,63.95L20.651,65.7L20.301,64.55L19.901,63.35L17.751,56.3M93.751,56.3L90.851,65.7L83.701,63.95L86.251,54.5L93.751,56.3" style="fill:rgb(255,204,0);fill-rule:nonzero;"/>
    </g>
    <g id="path1589" transform="matrix(4.12545,0,0,4.12545,23.7196,102.08)">
        <path d="M20.651,65.7L27.801,63.95L28.701,67.35L21.701,69.05L20.651,65.7M90.851,65.7L89.801,69.05L82.801,67.35L83.701,63.95L90.851,65.7" style="fill:rgb(236,189,2);fill-rule:nonzero;"/>
    </g>
    <g id="path1591" transform="matrix(4.12545,0,0,4.12545,23.7196,102.08)">
        <path d="M28.701,67.35L29.201,69.3L22.201,71L21.651,69.1L21.7,69.05L28.7,67.35M89.2,71L82.25,69.3L82.8,67.35L89.8,69.05L89.2,71" style="fill:rgb(191,153,0);fill-rule:nonzero;"/>
    </g>
    <g id="path1593" transform="matrix(4.12545,0,0,4.12545,23.7196,102.08)">
        <path d="M102.451,41.55L102.451,41.5L102.751,40.7L102.451,41.55" style="fill:rgb(153,204,51);fill-rule:nonzero;"/>
    </g>
</svg>
